HIERARCHY
ROOT Hips
{
 OFFSET 0.000000 0.000000 0.000000
 CHANNELS 6 Xposition Yposition Zposition Yrotation Xrotation Zrotation
 JOINT Chest
 {
  OFFSET 0.000000 9.585900 0.002600
  CHANNELS 3 Yrotation Xrotation Zrotation
  JOINT Chest2
  {
   OFFSET 0.000000 9.601200 -0.005300
   CHANNELS 3 Yrotation Xrotation Zrotation
   JOINT Chest3
   {
    OFFSET 0.000000 9.561800 0.000000
    CHANNELS 3 Yrotation Xrotation Zrotation
    JOINT Chest4
    {
     OFFSET 0.000000 9.552100 0.000000
     CHANNELS 3 Yrotation Xrotation Zrotation
     JOINT Neck
     {
      OFFSET 0.000000 14.453000 0.000000
      CHANNELS 3 Yrotation Xrotation Zrotation
      JOINT Head
      {
       OFFSET 0.000000 8.936500 -0.011300
       CHANNELS 3 Yrotation Xrotation Zrotation
       End Site
       {
        OFFSET 0.000000 17.073600 -0.006000
       }
      }
     }
     JOINT RightCollar
     {
      OFFSET -2.921100 9.558500 0.000000
      CHANNELS 3 Yrotation Xrotation Zrotation
      JOINT RightShoulder
      {
       OFFSET -13.519700 0.000000 0.000000
       CHANNELS 3 Yrotation Xrotation Zrotation
       JOINT RightElbow
       {
        OFFSET 0.000000 -29.696600 0.000000
        CHANNELS 3 Yrotation Xrotation Zrotation
        JOINT RightWrist
        {
         OFFSET 0.000000 -24.004700 0.000000
         CHANNELS 3 Yrotation Xrotation Zrotation
         End Site
         {
          OFFSET 0.000000 -17.728500 0.000000
         }
        }
       }
      }
     }
     JOINT LeftCollar
     {
      OFFSET 2.921100 9.558500 0.000000
      CHANNELS 3 Yrotation Xrotation Zrotation
      JOINT LeftShoulder
      {
       OFFSET 13.519700 0.000000 0.000000
       CHANNELS 3 Yrotation Xrotation Zrotation
       JOINT LeftElbow
       {
        OFFSET 0.000000 -29.696600 0.000000
        CHANNELS 3 Yrotation Xrotation Zrotation
        JOINT LeftWrist
        {
         OFFSET 0.000000 -24.004700 0.000000
         CHANNELS 3 Yrotation Xrotation Zrotation
         End Site
         {
          OFFSET 0.000000 -17.728500 0.000000
         }
        }
       }
      }
     }
    }
   }
  }
 }
 JOINT RightHip
 {
  OFFSET -7.771700 -0.012900 -0.001300
  CHANNELS 3 Yrotation Xrotation Zrotation
  JOINT RightKnee
  {
   OFFSET 0.000000 -40.869800 0.001200
   CHANNELS 3 Yrotation Xrotation Zrotation
   JOINT RightAnkle
   {
    OFFSET 0.000000 -39.717900 0.002100
    CHANNELS 3 Yrotation Xrotation Zrotation
    JOINT RightToe
    {
     OFFSET 0.000000 -4.965400 11.033500
     CHANNELS 3 Yrotation Xrotation Zrotation
     End Site
     {
      OFFSET 0.000000 -1.423100 5.872300
     }
    }
   }
  }
 }
 JOINT LeftHip
 {
  OFFSET 7.771700 -0.012900 -0.001300
  CHANNELS 3 Yrotation Xrotation Zrotation
  JOINT LeftKnee
  {
   OFFSET 0.000000 -40.869800 0.001200
   CHANNELS 3 Yrotation Xrotation Zrotation
   JOINT LeftAnkle
   {
    OFFSET 0.000000 -39.717900 0.002100
    CHANNELS 3 Yrotation Xrotation Zrotation
    JOINT LeftToe
    {
     OFFSET 0.000000 -4.965400 11.033500
     CHANNELS 3 Yrotation Xrotation Zrotation
     End Site
     {
      OFFSET 0.000000 -1.423100 5.872300
     }
    }
   }
  }
 }
}
MOTION
Frames: 12
Frame Time: 0.008333
0.000000 85.388000 0.000000 0.000000 -5.767877 0.000000 0.000000 11.653817 0.000000 0.000000 -5.885947 0.000000 0.000000 -0.000000 0.000000 0.000000 -0.000000 0.000000 0.000000 12.528835 0.000000 0.000000 0.711642 0.000000 0.000000 -0.000000 0.000000 0.000000 0.000000 -90.000000 0.000000 -2.309062 0.000000 0.000000 2.309062 0.000000 0.000000 -0.000000 0.000000 0.000000 -0.000000 90.000000 0.000000 -2.309062 0.000000 0.000000 2.309062 0.000000 0.000000 8.520406 0.000000 0.000000 1.905762 0.000000 -0.000000 -4.658285 0.000000 0.000000 -0.000000 0.000000 0.000000 8.520406 0.000000 0.000000 1.905762 0.000000 -0.000000 -4.658285 0.000000 0.000000 -0.000000 0.000000
-22.741821 62.095223 11.806730 178.082263 -50.802084 -0.983762 4.097700 26.524618 1.279154 0.621096 4.446164 0.206002 0.939347 7.063677 0.334635 3.055933 21.597956 1.425093 3.076629 17.953071 2.174551 4.945890 -2.474641 2.989316 3.639670 4.328482 2.720119 -3.023748 -8.233620 -12.559477 -99.532338 -65.732815 136.085613 7.442528 3.203181 -10.660168 -10.055992 -0.460343 2.129248 -11.689410 -37.660027 17.431643 173.174810 -73.782044 -176.169308 14.800553 -7.749238 3.797328 2.309564 -16.231330 -6.803965 -1.899567 62.502968 -5.691449 1.140827 -9.469356 10.338777 0.170404 -0.512060 0.107234 -5.577492 -13.207313 0.118712 28.720767 76.497969 29.610728 1.602186 -12.022238 -4.192733 0.398031 0.785736 0.155211
-22.745794 62.097745 11.814723 178.043830 -50.825582 -0.947075 4.079783 26.549754 1.247377 0.582496 4.465961 0.191746 0.976248 7.066231 0.338040 3.069692 21.594498 1.421336 3.067491 17.905552 2.185179 4.973788 -2.602457 2.999628 3.664715 4.346455 2.756565 -2.996813 -8.331683 -12.519428 -99.587745 -65.718261 136.095905 7.460820 3.260075 -10.639476 -9.977946 -0.312503 2.151741 -11.425807 -37.260477 17.300606 173.166269 -74.168279 -176.375607 14.696111 -7.749819 3.901204 2.331892 -16.209304 -6.797816 -1.895978 62.491829 -5.710563 1.133717 -9.462494 10.341757 0.178722 -0.504716 0.111660 -5.568935 -13.174791 0.088145 28.744582 76.465017 29.643055 1.612902 -12.013374 -4.205300 0.392644 0.792522 0.152228
-22.751332 62.101952 11.823660 178.002721 -50.860900 -0.902277 4.062575 26.587871 1.213654 0.581228 4.476107 0.188947 0.931626 7.104367 0.321973 3.086780 21.601594 1.405260 3.095349 17.826911 2.197806 4.995653 -2.730843 3.017879 3.728251 4.304345 2.765351 -2.978686 -8.383430 -12.476987 -99.659552 -65.686359 136.132745 7.477701 3.307739 -10.626299 -9.848832 -0.195629 2.179411 -11.147819 -36.838880 17.152555 173.130243 -74.510656 -176.580885 14.600300 -7.760367 3.982453 2.359096 -16.177088 -6.801744 -1.899201 62.484496 -5.728160 1.124464 -9.453564 10.338022 0.203860 -0.507600 0.112834 -5.554169 -13.131620 0.048002 28.794171 76.431820 29.700680 1.615202 -12.003271 -4.204591 0.366227 0.794516 0.139642
-22.749612 62.106392 11.834972 177.942847 -50.895329 -0.889099 4.083608 26.623743 1.236513 0.580388 4.487336 0.186079 0.936725 7.112049 0.318281 3.056155 21.644584 1.383814 3.117977 17.745812 2.214607 5.008401 -2.860200 3.044468 3.786878 4.301187 2.802896 -2.967673 -8.457844 -12.497499 -99.748380 -65.617759 136.203706 7.490110 3.297917 -10.630209 -9.714174 -0.082051 2.207427 -10.869935 -36.395401 16.996408 173.037962 -74.817808 -176.751449 14.505659 -7.764422 4.048851 2.384367 -16.144128 -6.755451 -1.882755 62.465266 -5.731396 1.137644 -9.451997 10.349342 0.180116 -0.497529 0.105721 -5.533401 -13.085723 0.057056 28.850943 76.403823 29.757228 1.689841 -11.983667 -4.198809 0.316027 0.788202 0.117649
-22.753035 62.109325 11.848997 177.907554 -50.915236 -0.866052 4.085300 26.646774 1.232697 0.580032 4.496435 0.184004 0.949329 7.107598 0.316698 3.044940 21.665125 1.376154 3.108701 17.707979 2.237384 5.008854 -2.989459 3.080220 3.830798 4.385264 2.858535 -2.958789 -8.602835 -12.482374 -99.794540 -65.607049 136.225324 7.482331 3.232124 -10.620134 -9.609835 0.074206 2.226440 -10.592801 -35.931109 16.837288 172.855019 -75.091349 -176.850256 14.397618 -7.757459 4.110496 2.403199 -16.124577 -6.736572 -1.883750 62.443964 -5.752996 1.130219 -9.438731 10.353787 0.184344 -0.493556 0.111897 -5.517741 -13.056823 0.031622 28.896220 76.360571 29.817703 1.729705 -11.972309 -4.223735 0.327346 0.802368 0.123822
-22.766248 62.115548 11.861158 177.835496 -50.957589 -0.755426 4.079865 26.699469 1.162679 0.596550 4.494022 0.184423 0.929014 7.139471 0.313094 3.053621 21.659554 1.367351 3.103194 17.676319 2.264328 4.993596 -3.115465 3.125364 3.875023 4.434254 2.893034 -2.954238 -8.700140 -12.459482 -99.823608 -65.625904 136.231264 7.464826 3.188532 -10.591449 -9.504073 0.234339 2.244143 -10.314396 -35.447656 16.673242 172.612549 -75.335423 -176.902740 14.272156 -7.739906 4.171079 2.467107 -16.072881 -6.786414 -1.864699 62.414028 -5.748269 1.091080 -9.434615 10.349003 0.217046 -0.488998 0.122884 -5.470021 -13.000481 -0.080190 28.995268 76.284474 29.946351 1.721811 -11.958900 -4.250559 0.325385 0.820394 0.125405
-22.767416 62.123255 11.873652 177.788899 -51.006397 -0.734985 4.098327 26.757838 1.176245 0.589495 4.503711 0.177666 0.931605 7.160413 0.310856 3.062195 21.756467 1.360307 3.106659 17.541256 2.280402 4.960358 -3.229576 3.188093 3.923496 4.361248 2.913626 -2.957279 -8.768085 -12.439591 -99.875947 -65.635122 136.262451 7.451040 3.170157 -10.558042 -9.395300 0.292230 2.278794 -10.030778 -34.947652 16.503158 172.398805 -75.557081 -176.983793 14.144328 -7.713991 4.216915 2.494998 -16.023904 -6.765337 -1.860927 62.396647 -5.749304 1.103556 -9.425724 10.359107 0.200617 -0.492374 0.112204 -5.448543 -12.941608 -0.093921 29.042303 76.248086 30.004619 1.753748 -11.920827 -4.242283 0.265195 0.799747 0.100487
-22.773466 62.128615 11.888223 177.761867 -51.033347 -0.698060 4.109035 26.797361 1.168117 0.587252 4.542332 0.180409 0.926907 7.155048 0.301345 3.087251 21.784543 1.360356 3.086475 17.485182 2.311487 4.912516 -3.334255 3.250977 3.944399 4.352091 2.938807 -2.968949 -8.824672 -12.430062 -99.940310 -65.603240 136.327512 7.454645 3.183223 -10.533377 -9.320918 0.414215 2.301142 -9.736066 -34.433004 16.327877 172.231743 -75.764083 -177.115104 14.013119 -7.689476 4.247976 2.517134 -15.992696 -6.780906 -1.831653 62.373706 -5.724733 1.084574 -9.415306 10.361827 0.205454 -0.484014 0.112212 -5.432863 -12.907235 -0.138104 29.057238 76.203981 30.034756 1.755949 -11.898768 -4.251644 0.262951 0.803506 0.097141
-22.785719 62.131469 11.904535 177.768695 -51.037495 -0.646578 4.079538 26.812053 1.110998 0.592932 4.556666 0.182947 0.927271 7.181728 0.300622 3.114755 21.810172 1.363535 3.059077 17.441644 2.352753 4.852707 -3.427701 3.312225 3.940397 4.326189 2.956959 -2.931931 -8.815376 -12.406266 -100.135856 -65.579493 136.476372 7.478128 3.215772 -10.521817 -9.256992 0.530676 2.318649 -9.427767 -33.905895 16.147975 172.060250 -75.962770 -177.268538 13.862130 -7.679798 4.275000 2.534145 -15.983079 -6.838041 -1.825563 62.352901 -5.721352 1.042682 -9.395971 10.358630 0.247688 -0.489688 0.124702 -5.427437 -12.900018 -0.216402 29.038396 76.147047 30.038907 1.688955 -11.884140 -4.280721 0.309851 0.822321 0.123336
-22.782349 62.136363 11.919742 177.747856 -51.053558 -0.661395 4.114918 26.832993 1.154727 0.591270 4.556536 0.180402 0.946304 7.223981 0.308657 3.141151 21.831169 1.365493 3.027818 17.400991 2.389127 4.782556 -3.503861 3.389024 3.903190 4.270827 2.965219 -2.907457 -8.790934 -12.397928 -100.228403 -65.537527 136.569502 7.477124 3.232620 -10.485448 -9.198292 0.644891 2.334772 -9.104398 -33.369840 15.963263 171.891070 -76.157930 -177.455331 13.695112 -7.692093 4.290178 2.541875 -15.964565 -6.804928 -1.817496 62.328061 -5.707577 1.055429 -9.388606 10.362694 0.233431 -0.490112 0.113260 -5.421637 -12.877886 -0.191106 29.024516 76.123254 30.031053 1.700392 -11.850238 -4.275467 0.288601 0.803560 0.113266
-22.781709 62.142776 11.932995 177.714980 -51.079154 -0.644014 4.159310 26.872260 1.183761 0.596135 4.570155 0.181010 0.972853 7.266159 0.313661 3.152279 21.827157 1.364840 2.993645 17.365944 2.429547 4.705694 -3.569545 3.474330 3.917083 4.320440 3.011246 -2.925346 -8.865498 -12.418020 -100.258359 -65.468118 136.614149 7.525028 3.259742 -10.474822 -9.145937 0.757015 2.353851 -8.768496 -32.821838 15.774065 171.768481 -76.347075 -177.712253 13.526159 -7.723243 4.286533 2.560921 -15.936880 -6.796234 -1.822503 62.304881 -5.705425 1.058016 -9.368427 10.361491 0.237332 -0.501094 0.109459 -5.403668 -12.844950 -0.197061 29.036912 76.101051 30.047460 1.717526 -11.842467 -4.274023 0.252075 0.798527 0.107938
